<svg width="79" height="80" viewBox="0 0 79 80" fill="none" xmlns="http://www.w3.org/2000/svg">
<rect width="4" height="80" fill="#C4C4C4"/>
<rect x="5" y="27" width="4" height="53" fill="#C4C4C4"/>
<rect x="10" y="17" width="4" height="63" fill="#C4C4C4"/>
<rect x="15" y="38" width="4" height="42" fill="#C4C4C4"/>
<rect x="20" y="27" width="4" height="53" fill="#C4C4C4"/>
<rect x="25" y="10" width="4" height="70" fill="#C4C4C4"/>
<rect x="30" y="23" width="4" height="57" fill="#C4C4C4"/>
<rect x="35" y="32" width="4" height="48" fill="#C4C4C4"/>
<rect x="40" y="61" width="4" height="19" fill="#C4C4C4"/>
<rect x="45" y="51" width="4" height="29" fill="#C4C4C4"/>
<rect x="50" y="42" width="4" height="38" fill="#C4C4C4"/>
<rect x="55" y="13" width="4" height="67" fill="#C4C4C4"/>
<rect x="60" y="23" width="4" height="57" fill="#C4C4C4"/>
<rect x="65" y="27" width="4" height="53" fill="#C4C4C4"/>
<rect x="70" y="42" width="4" height="38" fill="#C4C4C4"/>
<rect x="75" y="27" width="4" height="53" fill="#C4C4C4"/>
</svg>
